<?xml version="1.0" encoding="UTF-8"?>
<svg width="138px" height="224px" viewBox="0 0 138 224" version="1.1" xmlns="http://www.w3.org/2000/svg" xmlns:xlink="http://www.w3.org/1999/xlink">
    <!-- Generator: Sketch 48.2 (47327) - http://www.bohemiancoding.com/sketch -->
    <title>plastic-blue-card</title>
    <desc>Created with Sketch.</desc>
    <defs></defs>
    <g id="Page-1" stroke="none" stroke-width="1" fill="none" fill-rule="evenodd">
        <g id="plastic-blue-card">
            <rect id="Rectangle" fill="#00B1E7" x="0" y="0" width="138" height="224" rx="8"></rect>
            <path d="M70.9816492,67.261254 C70.194223,69.9508291 69.794088,72.7244224 69.794088,75.5118541 L69.794088,99.6834338 L80.7884154,99.6834338 L80.7884154,75.5118541 C80.7884154,74.1359304 80.9988568,72.7857064 81.4167756,71.4947895 C81.9868445,69.7373237 83.4984658,68.4216954 85.3608227,68.0648646 C86.21642,67.8997933 87.103633,67.8177519 88.0007259,67.8177519 C88.8997947,67.8177519 89.7870077,67.8997933 90.6406291,68.0648646 C92.502986,68.4216954 94.0146072,69.7353467 94.5866521,71.4947895 C95.0025949,72.7886718 95.2130363,74.1388958 95.2130363,75.513831 C95.2130363,76.8848125 95.0025949,78.2370134 94.5866521,79.5328726 C94.0146072,81.2903384 92.502986,82.6039897 90.6406291,82.9608205 C89.7781158,83.1258919 88.8909028,83.2079333 88.0007259,83.2079333 C87.1135129,83.2079333 86.2253119,83.1258919 85.3608227,82.9608205 C85.0021831,82.8926174 84.6544114,82.7868532 84.3224475,82.6494585 L88.0491373,92.6328131 C91.4962265,92.6278709 94.9047841,92.0624769 98.1710716,90.9504696 C101.503554,89.7188597 104.002175,87.0984762 105.026718,83.7624543 C105.809205,81.0956136 106.207364,78.317078 106.207364,75.5088888 C106.207364,72.703665 105.809205,69.9300716 105.026718,67.261254 C104.002175,63.9272089 101.503554,61.3068254 98.1730475,60.0752156 C94.8889763,58.958266 91.4665868,58.3908951 87.9987499,58.3908951 C84.530913,58.3908951 81.1104994,58.958266 77.8372961,60.0752156 C74.4929576,61.3088023 71.9953246,63.9291858 70.9816492,67.261254 M56.2517401,38.8185777 L67.2460676,38.8185777 C67.2391517,36.0380652 66.8439566,33.2852293 66.0683862,30.6342038 C65.042855,27.3001588 62.545222,24.6797753 59.2147153,23.4461885 C55.9276802,22.3292389 52.5033147,21.761868 49.0394297,21.761868 C45.5735687,21.761868 42.1541432,22.3292389 38.8759999,23.4461885 C35.5336374,24.6817522 33.0360044,27.3021357 32.020353,30.6342038 C31.2339148,33.3237789 30.8357557,36.0973723 30.8357557,38.8808502 C30.8357557,41.6682818 31.2339148,44.4438521 32.020353,47.1334272 C33.0360044,50.4654954 35.5336374,53.0858788 38.8740239,54.3214425 C42.1561192,55.4383921 45.5785087,56.005763 49.0394297,56.005763 C52.5003507,56.005763 55.9227402,55.4383921 59.2127394,54.3234194 C62.545222,53.0878557 65.042855,50.4674723 66.0683862,47.1334272 C66.2007766,46.6777513 66.324275,46.2112024 66.4359177,45.7436651 L56.0758783,41.0317194 C55.9711516,41.6682818 55.8219655,42.2929829 55.6253559,42.9038455 C55.053311,44.6613113 53.5416898,45.9749627 51.6813089,46.3347588 C50.8168196,46.4968648 49.9296066,46.5818716 49.0423937,46.5818716 C48.1522167,46.5818716 47.2650037,46.4968648 46.3995265,46.3347588 C44.5381576,45.9749627 43.0285123,44.6613113 42.4535035,42.9038455 C42.0375606,41.6129286 41.8271193,40.2607277 41.8271193,38.8828271 C41.8271193,37.5069033 42.0375606,36.1566793 42.4535035,34.8657624 C43.0255484,33.1082966 44.5381576,31.7926683 46.3995265,31.4358376 C47.2551238,31.2707662 48.1453008,31.1887248 49.0423937,31.1887248 C49.9384985,31.1887248 50.8266995,31.2707662 51.6813089,31.4358376 C53.5416898,31.7926683 55.053311,33.1082966 55.6253559,34.8657624 C56.0343828,36.1388872 56.2428482,37.4683537 56.2517401,38.8185777 M56.2517401,75.5118541 C56.2517401,76.8848125 56.0422867,78.2370134 55.6253559,79.5328726 C55.053311,81.2903384 53.5416898,82.6039897 51.6813089,82.9608205 C50.8168196,83.1258919 49.9296066,83.2079333 49.0423937,83.2079333 C48.1522167,83.2079333 47.2650037,83.1258919 46.3995265,82.9608205 C44.5381576,82.6039897 43.0285123,81.2903384 42.4535035,79.5328726 C42.0375606,78.2419557 41.8271193,76.8897548 41.8271193,75.5118541 C41.8271193,74.1359304 42.0375606,72.7857064 42.4535035,71.4947895 C43.0255484,69.7353467 44.5381576,68.4216954 46.3995265,68.0648646 C47.2551238,67.8997933 48.1453008,67.8177519 49.0423937,67.8177519 C49.9384985,67.8177519 50.8266995,67.8997933 51.6813089,68.0648646 C53.5416898,68.4216954 55.053311,69.7353467 55.6253559,71.4947895 C56.0422867,72.7886718 56.2517401,74.1388958 56.2517401,75.5118541 M66.0654223,83.7624543 C66.8479085,81.0956136 67.2460676,78.317078 67.2460676,75.5088888 C67.2460676,72.7056419 66.8479085,69.9320485 66.0654223,67.2632309 C65.040879,63.9291858 62.543246,61.3088023 59.2127394,60.0752156 C55.9276802,58.958266 52.5033147,58.3908951 49.0394297,58.3908951 C45.5715928,58.3908951 42.1521672,58.958266 38.8759999,60.0752156 C35.5336374,61.3107793 33.0340284,63.9311627 32.020353,67.2632309 C31.2339148,69.952806 30.8327918,72.7263993 30.8327918,75.5088888 C30.8327918,78.2973089 31.2339148,81.0748561 32.020353,83.7624543 C33.0340284,87.0945224 35.5336374,89.7149059 38.8740239,90.9504696 C42.1541432,92.0674192 45.5735687,92.6347901 49.0394297,92.6347901 C52.5003507,92.6347901 55.9227402,92.0674192 59.2097754,90.9524465 C62.543246,89.7188597 65.040879,87.0964993 66.0654223,83.7624543 M95.2130363,38.884804 C95.2130363,40.2557854 95.0025949,41.6079863 94.5866521,42.9038455 C94.0146072,44.6613113 92.502986,45.9749627 90.6406291,46.3347588 C89.7781158,46.4968648 88.8879389,46.5818716 88.0007259,46.5818716 C87.1135129,46.5818716 86.2253119,46.4968648 85.3608227,46.3347588 C83.4984658,45.9749627 81.9868445,44.6613113 81.4167756,42.9038455 C80.9988568,41.6129286 80.7884154,40.2607277 80.7884154,38.884804 C80.7884154,37.5069033 80.9988568,36.1566793 81.4167756,34.8657624 C81.9868445,33.1082966 83.4984658,31.7926683 85.3608227,31.4358376 C86.21642,31.2707662 87.103633,31.1887248 88.0007259,31.1887248 C88.8997947,31.1887248 89.7870077,31.2707662 90.6406291,31.4358376 C92.502986,31.7926683 94.0146072,33.1063197 94.5866521,34.8657624 C95.0025949,36.1596447 95.2130363,37.5118456 95.2130363,38.884804 M105.026718,47.1334272 C105.809205,44.4665865 106.207364,41.6880509 106.207364,38.8808502 C106.207364,36.0766148 105.809205,33.3030214 105.026718,30.6342038 C104.004151,27.3001588 101.503554,24.6797753 98.1730475,23.4461885 C94.8889763,22.3292389 91.4665868,21.761868 87.9987499,21.761868 C84.530913,21.761868 81.1134634,22.3292389 77.8372961,23.4461885 C74.4929576,24.6817522 71.9953246,27.3021357 70.9816492,30.6342038 C70.194223,33.3237789 69.794088,36.0973723 69.794088,38.8808502 C69.794088,41.6682818 70.194223,44.445829 70.9816492,47.1334272 C71.9953246,50.4654954 74.4929576,53.0858788 77.8372961,54.3214425 C81.1154394,55.440369 84.5348649,56.005763 87.9987499,56.005763 C91.4616469,56.005763 94.8840364,55.440369 98.1710716,54.3234194 C101.503554,53.0898326 104.004151,50.4674723 105.026718,47.1334272" id="Fill-4" fill="#FEFEFE" fill-rule="nonzero"></path>
            <path d="M38.6256708,184.128588 L38.6366708,184.128588 L41.2436708,177.682588 L42.4536708,177.682588 L42.4536708,185.470588 L41.6616708,185.470588 L41.6616708,178.705588 L41.6396708,178.705588 L38.8236708,185.470588 L38.4056708,185.470588 L35.5896708,178.705588 L35.5676708,178.705588 L35.5676708,185.470588 L34.7756708,185.470588 L34.7756708,177.682588 L35.9856708,177.682588 L38.6256708,184.128588 Z M44.4776708,181.455588 C44.4776708,181.316254 44.4740042,181.136589 44.4666708,180.916588 C44.4593375,180.696587 44.4483376,180.498589 44.4336708,180.322588 L45.1486708,180.322588 C45.1633376,180.461922 45.1743375,180.615921 45.1816708,180.784588 C45.1890042,180.953256 45.1926708,181.092588 45.1926708,181.202588 L45.2146708,181.202588 C45.3613382,180.90192 45.581336,180.658089 45.8746708,180.471088 C46.1680056,180.284087 46.4980023,180.190588 46.8646708,180.190588 C46.9600046,180.190588 47.0461704,180.194255 47.1231708,180.201588 C47.2001712,180.208922 47.2790038,180.223588 47.3596708,180.245588 L47.2606708,180.949588 C47.2166706,180.934921 47.143338,180.920255 47.0406708,180.905588 C46.9380036,180.890921 46.835338,180.883588 46.7326708,180.883588 C46.5346698,180.883588 46.3440051,180.920255 46.1606708,180.993588 C45.9773366,181.066922 45.8178382,181.182421 45.6821708,181.340088 C45.5465035,181.497756 45.4365046,181.69942 45.3521708,181.945088 C45.2678371,182.190756 45.2256708,182.48592 45.2256708,182.830588 L45.2256708,185.470588 L44.4776708,185.470588 L44.4776708,181.455588 Z M51.1766708,181.543588 C51.0666703,181.330921 50.8998386,181.156756 50.6761708,181.021088 C50.452503,180.885421 50.1976723,180.817588 49.9116708,180.817588 C49.7796702,180.817588 49.6476715,180.832255 49.5156708,180.861588 C49.3836702,180.890922 49.266338,180.938588 49.1636708,181.004588 C49.0610036,181.070589 48.9785045,181.154921 48.9161708,181.257588 C48.8538372,181.360255 48.8226708,181.481254 48.8226708,181.620588 C48.8226708,181.862589 48.9216698,182.047754 49.1196708,182.176088 C49.3176718,182.304422 49.6293354,182.412588 50.0546708,182.500588 C50.6633405,182.625256 51.1125027,182.806754 51.4021708,183.045088 C51.6918389,183.283423 51.8366708,183.604253 51.8366708,184.007588 C51.8366708,184.300923 51.7798381,184.548421 51.6661708,184.750088 C51.5525036,184.951756 51.4040051,185.116754 51.2206708,185.245088 C51.0373366,185.373422 50.830172,185.465088 50.5991708,185.520088 C50.3681697,185.575089 50.1353387,185.602588 49.9006708,185.602588 C49.5120022,185.602588 49.1343393,185.521922 48.7676708,185.360588 C48.4010023,185.199254 48.1003387,184.946257 47.8656708,184.601588 L48.4596708,184.161588 C48.5916715,184.388923 48.7860029,184.579587 49.0426708,184.733588 C49.2993388,184.887589 49.5816693,184.964588 49.8896708,184.964588 C50.051005,184.964588 50.2050034,184.949922 50.3516708,184.920588 C50.4983382,184.891255 50.6266703,184.839922 50.7366708,184.766588 C50.8466714,184.693255 50.9346705,184.599755 51.0006708,184.486088 C51.0666712,184.372421 51.0996708,184.231256 51.0996708,184.062588 C51.0996708,183.791254 50.9695055,183.587756 50.7091708,183.452088 C50.4488362,183.316421 50.0730066,183.189922 49.5816708,183.072588 C49.4276701,183.035921 49.264505,182.990089 49.0921708,182.935088 C48.9198366,182.880088 48.7603382,182.799422 48.6136708,182.693088 C48.4670034,182.586754 48.3460046,182.452922 48.2506708,182.291588 C48.155337,182.130254 48.1076708,181.928589 48.1076708,181.686588 C48.1076708,181.422587 48.1590036,181.197089 48.2616708,181.010088 C48.364338,180.823087 48.5018366,180.669089 48.6741708,180.548088 C48.846505,180.427088 49.0426697,180.337255 49.2626708,180.278588 C49.4826719,180.219921 49.710003,180.190588 49.9446708,180.190588 C50.304006,180.190588 50.6523358,180.271254 50.9896708,180.432588 C51.3270058,180.593922 51.5800033,180.821253 51.7486708,181.114588 L51.1766708,181.543588 Z M56.9076708,184.766588 L61.0766708,184.766588 L61.0766708,185.470588 L56.1156708,185.470588 L56.1156708,177.682588 L60.9446708,177.682588 L60.9446708,178.386588 L56.9076708,178.386588 L56.9076708,181.070588 L60.6806708,181.070588 L60.6806708,181.763588 L56.9076708,181.763588 L56.9076708,184.766588 Z M65.3776708,177.682588 L66.1696708,177.682588 L66.1696708,181.059588 L70.4156708,181.059588 L70.4156708,177.682588 L71.2076708,177.682588 L71.2076708,185.470588 L70.4156708,185.470588 L70.4156708,181.785588 L66.1696708,181.785588 L66.1696708,185.470588 L65.3776708,185.470588 L65.3776708,177.682588 Z M76.9716708,185.470588 C76.9570041,185.331254 76.9460042,185.177256 76.9386708,185.008588 C76.9313375,184.839921 76.9276708,184.700589 76.9276708,184.590588 L76.9056708,184.590588 C76.7590034,184.891256 76.5206725,185.135087 76.1906708,185.322088 C75.8606692,185.509089 75.5123393,185.602588 75.1456708,185.602588 C74.4930009,185.602588 74.0035058,185.408257 73.6771708,185.019588 C73.3508359,184.63092 73.1876708,184.117591 73.1876708,183.479588 L73.1876708,180.322588 L73.9356708,180.322588 L73.9356708,183.171588 C73.9356708,183.442923 73.9576706,183.688587 74.0016708,183.908588 C74.045671,184.128589 74.120837,184.317421 74.2271708,184.475088 C74.3335047,184.632756 74.4765033,184.755588 74.6561708,184.843588 C74.8358384,184.931589 75.0613361,184.975588 75.3326708,184.975588 C75.5306718,184.975588 75.7231699,184.935255 75.9101708,184.854588 C76.0971718,184.773921 76.2640034,184.651089 76.4106708,184.486088 C76.5573382,184.321087 76.6746704,184.11209 76.7626708,183.859088 C76.8506713,183.606087 76.8946708,183.307257 76.8946708,182.962588 L76.8946708,180.322588 L77.6426708,180.322588 L77.6426708,184.337588 C77.6426708,184.476922 77.6463375,184.656587 77.6536708,184.876588 C77.6610042,185.096589 77.6720041,185.294587 77.6866708,185.470588 L76.9716708,185.470588 Z M83.8576708,184.601588 C83.6376697,184.93159 83.3516726,185.180921 82.9996708,185.349588 C82.6476691,185.518256 82.2846727,185.602588 81.9106708,185.602588 C81.5073355,185.602588 81.1425058,185.532922 80.8161708,185.393588 C80.4898359,185.254254 80.211172,185.063589 79.9801708,184.821588 C79.7491697,184.579587 79.5695048,184.29359 79.4411708,183.963588 C79.3128369,183.633587 79.2486708,183.277923 79.2486708,182.896588 C79.2486708,182.515253 79.3128369,182.15959 79.4411708,181.829588 C79.5695048,181.499587 79.7491697,181.213589 79.9801708,180.971588 C80.211172,180.729587 80.4898359,180.538922 80.8161708,180.399588 C81.1425058,180.260254 81.5073355,180.190588 81.9106708,180.190588 C82.2846727,180.190588 82.6476691,180.276754 82.9996708,180.449088 C83.3516726,180.621422 83.6376697,180.876253 83.8576708,181.213588 L83.8796708,181.213588 L83.8796708,177.154588 L84.6276708,177.154588 L84.6276708,185.470588 L83.8796708,185.470588 L83.8796708,184.601588 L83.8576708,184.601588 Z M80.0406708,182.896588 C80.0406708,183.18259 80.0846704,183.452087 80.1726708,183.705088 C80.2606713,183.95809 80.38717,184.178087 80.5521708,184.365088 C80.7171717,184.552089 80.9206696,184.698754 81.1626708,184.805088 C81.404672,184.911422 81.6796693,184.964588 81.9876708,184.964588 C82.2736723,184.964588 82.5376696,184.911422 82.7796708,184.805088 C83.021672,184.698754 83.2306699,184.553922 83.4066708,184.370588 C83.5826717,184.187254 83.7201703,183.96909 83.8191708,183.716088 C83.9181713,183.463087 83.9676708,183.189923 83.9676708,182.896588 C83.9676708,182.603253 83.9181713,182.33009 83.8191708,182.077088 C83.7201703,181.824087 83.5826717,181.604089 83.4066708,181.417088 C83.2306699,181.230087 83.021672,181.083422 82.7796708,180.977088 C82.5376696,180.870754 82.2736723,180.817588 81.9876708,180.817588 C81.6796693,180.817588 81.404672,180.872588 81.1626708,180.982588 C80.9206696,181.092589 80.7171717,181.241087 80.5521708,181.428088 C80.38717,181.615089 80.2606713,181.835087 80.1726708,182.088088 C80.0846704,182.34109 80.0406708,182.610587 80.0406708,182.896588 Z M89.3686708,181.543588 C89.2586703,181.330921 89.0918386,181.156756 88.8681708,181.021088 C88.644503,180.885421 88.3896723,180.817588 88.1036708,180.817588 C87.9716702,180.817588 87.8396715,180.832255 87.7076708,180.861588 C87.5756702,180.890922 87.458338,180.938588 87.3556708,181.004588 C87.2530036,181.070589 87.1705045,181.154921 87.1081708,181.257588 C87.0458372,181.360255 87.0146708,181.481254 87.0146708,181.620588 C87.0146708,181.862589 87.1136698,182.047754 87.3116708,182.176088 C87.5096718,182.304422 87.8213354,182.412588 88.2466708,182.500588 C88.8553405,182.625256 89.3045027,182.806754 89.5941708,183.045088 C89.8838389,183.283423 90.0286708,183.604253 90.0286708,184.007588 C90.0286708,184.300923 89.9718381,184.548421 89.8581708,184.750088 C89.7445036,184.951756 89.5960051,185.116754 89.4126708,185.245088 C89.2293366,185.373422 89.022172,185.465088 88.7911708,185.520088 C88.5601697,185.575089 88.3273387,185.602588 88.0926708,185.602588 C87.7040022,185.602588 87.3263393,185.521922 86.9596708,185.360588 C86.5930023,185.199254 86.2923387,184.946257 86.0576708,184.601588 L86.6516708,184.161588 C86.7836715,184.388923 86.9780029,184.579587 87.2346708,184.733588 C87.4913388,184.887589 87.7736693,184.964588 88.0816708,184.964588 C88.243005,184.964588 88.3970034,184.949922 88.5436708,184.920588 C88.6903382,184.891255 88.8186703,184.839922 88.9286708,184.766588 C89.0386714,184.693255 89.1266705,184.599755 89.1926708,184.486088 C89.2586712,184.372421 89.2916708,184.231256 89.2916708,184.062588 C89.2916708,183.791254 89.1615055,183.587756 88.9011708,183.452088 C88.6408362,183.316421 88.2650066,183.189922 87.7736708,183.072588 C87.6196701,183.035921 87.456505,182.990089 87.2841708,182.935088 C87.1118366,182.880088 86.9523382,182.799422 86.8056708,182.693088 C86.6590034,182.586754 86.5380046,182.452922 86.4426708,182.291588 C86.347337,182.130254 86.2996708,181.928589 86.2996708,181.686588 C86.2996708,181.422587 86.3510036,181.197089 86.4536708,181.010088 C86.556338,180.823087 86.6938366,180.669089 86.8661708,180.548088 C87.038505,180.427088 87.2346697,180.337255 87.4546708,180.278588 C87.6746719,180.219921 87.902003,180.190588 88.1366708,180.190588 C88.496006,180.190588 88.8443358,180.271254 89.1816708,180.432588 C89.5190058,180.593922 89.7720033,180.821253 89.9406708,181.114588 L89.3686708,181.543588 Z M96.6286708,182.896588 C96.6286708,183.285257 96.5608382,183.644587 96.4251708,183.974588 C96.2895035,184.30459 96.100672,184.590587 95.8586708,184.832588 C95.6166696,185.074589 95.3270058,185.263421 94.9896708,185.399088 C94.6523358,185.534756 94.2820062,185.602588 93.8786708,185.602588 C93.4826688,185.602588 93.1160058,185.534756 92.7786708,185.399088 C92.4413358,185.263421 92.151672,185.074589 91.9096708,184.832588 C91.6676696,184.590587 91.4788382,184.30459 91.3431708,183.974588 C91.2075035,183.644587 91.1396708,183.285257 91.1396708,182.896588 C91.1396708,182.50792 91.2075035,182.14859 91.3431708,181.818588 C91.4788382,181.488587 91.6676696,181.202589 91.9096708,180.960588 C92.151672,180.718587 92.4413358,180.529756 92.7786708,180.394088 C93.1160058,180.258421 93.4826688,180.190588 93.8786708,180.190588 C94.2820062,180.190588 94.6523358,180.258421 94.9896708,180.394088 C95.3270058,180.529756 95.6166696,180.718587 95.8586708,180.960588 C96.100672,181.202589 96.2895035,181.488587 96.4251708,181.818588 C96.5608382,182.14859 96.6286708,182.50792 96.6286708,182.896588 Z M95.8366708,182.896588 C95.8366708,182.610587 95.790838,182.34109 95.6991708,182.088088 C95.6075037,181.835087 95.4773383,181.615089 95.3086708,181.428088 C95.1400033,181.241087 94.934672,181.092589 94.6926708,180.982588 C94.4506696,180.872588 94.179339,180.817588 93.8786708,180.817588 C93.5780027,180.817588 93.3085054,180.872588 93.0701708,180.982588 C92.8318363,181.092589 92.6283383,181.241087 92.4596708,181.428088 C92.2910033,181.615089 92.160838,181.835087 92.0691708,182.088088 C91.9775037,182.34109 91.9316708,182.610587 91.9316708,182.896588 C91.9316708,183.18259 91.9775037,183.452087 92.0691708,183.705088 C92.160838,183.95809 92.2910033,184.178087 92.4596708,184.365088 C92.6283383,184.552089 92.8318363,184.698754 93.0701708,184.805088 C93.3085054,184.911422 93.5780027,184.964588 93.8786708,184.964588 C94.179339,184.964588 94.4506696,184.911422 94.6926708,184.805088 C94.934672,184.698754 95.1400033,184.552089 95.3086708,184.365088 C95.4773383,184.178087 95.6075037,183.95809 95.6991708,183.705088 C95.790838,183.452087 95.8366708,183.18259 95.8366708,182.896588 Z M98.9056708,180.322588 C98.9203376,180.461922 98.9313375,180.615921 98.9386708,180.784588 C98.9460042,180.953256 98.9496708,181.092588 98.9496708,181.202588 L98.9716708,181.202588 C99.1183382,180.90192 99.3566692,180.658089 99.6866708,180.471088 C100.016672,180.284087 100.365002,180.190588 100.731671,180.190588 C101.384341,180.190588 101.873836,180.38492 102.200171,180.773588 C102.526506,181.162257 102.689671,181.675585 102.689671,182.313588 L102.689671,185.470588 L101.941671,185.470588 L101.941671,182.621588 C101.941671,182.350254 101.919671,182.104589 101.875671,181.884588 C101.831671,181.664587 101.756505,181.475756 101.650171,181.318088 C101.543837,181.160421 101.400838,181.037589 101.221171,180.949588 C101.041503,180.861588 100.816006,180.817588 100.544671,180.817588 C100.34667,180.817588 100.154172,180.857921 99.9671708,180.938588 C99.7801699,181.019255 99.6133382,181.142087 99.4666708,181.307088 C99.3200034,181.472089 99.2026713,181.681087 99.1146708,181.934088 C99.0266704,182.18709 98.9826708,182.48592 98.9826708,182.830588 L98.9826708,185.470588 L98.2346708,185.470588 L98.2346708,181.455588 C98.2346708,181.316254 98.2310042,181.136589 98.2236708,180.916588 C98.2163375,180.696587 98.2053376,180.498589 98.1906708,180.322588 L98.9056708,180.322588 Z M52.0676708,199.128588 L52.0786708,199.128588 L54.6856708,192.682588 L55.8956708,192.682588 L55.8956708,200.470588 L55.1036708,200.470588 L55.1036708,193.705588 L55.0816708,193.705588 L52.2656708,200.470588 L51.8476708,200.470588 L49.0316708,193.705588 L49.0096708,193.705588 L49.0096708,200.470588 L48.2176708,200.470588 L48.2176708,192.682588 L49.4276708,192.682588 L52.0676708,199.128588 Z M61.8466708,197.500588 C61.8246707,197.016586 61.6688389,196.61509 61.3791708,196.296088 C61.0895027,195.977087 60.6770068,195.817588 60.1416708,195.817588 C59.8923362,195.817588 59.6613386,195.863421 59.4486708,195.955088 C59.2360031,196.046755 59.049005,196.171421 58.8876708,196.329088 C58.7263367,196.486756 58.5980046,196.666421 58.5026708,196.868088 C58.407337,197.069756 58.3523376,197.280587 58.3376708,197.500588 L61.8466708,197.500588 Z M62.6056708,197.742588 L62.6056708,197.907588 C62.6056708,197.966255 62.6020042,198.028588 62.5946708,198.094588 L58.3266708,198.094588 C58.3340042,198.351256 58.385337,198.593254 58.4806708,198.820588 C58.5760046,199.047923 58.7080033,199.245921 58.8766708,199.414588 C59.0453383,199.583256 59.2433364,199.717088 59.4706708,199.816088 C59.6980053,199.915089 59.9436695,199.964588 60.2076708,199.964588 C60.5963394,199.964588 60.9318361,199.874756 61.2141708,199.695088 C61.4965056,199.515421 61.7110034,199.308256 61.8576708,199.073588 L62.4186708,199.513588 C62.1106693,199.902257 61.771506,200.180921 61.4011708,200.349588 C61.0308356,200.518256 60.6330063,200.602588 60.2076708,200.602588 C59.8263356,200.602588 59.4725058,200.534756 59.1461708,200.399088 C58.8198359,200.263421 58.5393387,200.074589 58.3046708,199.832588 C58.070003,199.590587 57.8848382,199.30459 57.7491708,198.974588 C57.6135035,198.644587 57.5456708,198.285257 57.5456708,197.896588 C57.5456708,197.50792 57.6116702,197.14859 57.7436708,196.818588 C57.8756715,196.488587 58.059003,196.202589 58.2936708,195.960588 C58.5283387,195.718587 58.8033359,195.529756 59.1186708,195.394088 C59.4340057,195.258421 59.7750023,195.190588 60.1416708,195.190588 C60.5450062,195.190588 60.9006693,195.258421 61.2086708,195.394088 C61.5166724,195.529756 61.7733365,195.713087 61.9786708,195.944088 C62.1840052,196.175089 62.339837,196.444587 62.4461708,196.752588 C62.5525047,197.06059 62.6056708,197.390586 62.6056708,197.742588 Z M64.9486708,196.202588 C65.0953382,195.90192 65.320836,195.658089 65.6251708,195.471088 C65.9295057,195.284087 66.268669,195.190588 66.6426708,195.190588 C66.7820049,195.190588 66.9268367,195.205255 67.0771708,195.234588 C67.2275049,195.263922 67.3741701,195.320754 67.5171708,195.405088 C67.6601715,195.489422 67.7921702,195.601254 67.9131708,195.740588 C68.0341714,195.879922 68.1386704,196.059587 68.2266708,196.279588 C68.4026717,195.927586 68.642836,195.658089 68.9471708,195.471088 C69.2515057,195.284087 69.6126687,195.190588 70.0306708,195.190588 C70.6833408,195.190588 71.1728359,195.38492 71.4991708,195.773588 C71.8255058,196.162257 71.9886708,196.675585 71.9886708,197.313588 L71.9886708,200.470588 L71.2406708,200.470588 L71.2406708,197.621588 C71.2406708,197.078919 71.1398385,196.64259 70.9381708,196.312588 C70.7365032,195.982587 70.3936732,195.817588 69.9096708,195.817588 C69.6383361,195.817588 69.4091718,195.872588 69.2221708,195.982588 C69.0351699,196.092589 68.8848381,196.237421 68.7711708,196.417088 C68.6575036,196.596756 68.5750044,196.800254 68.5236708,197.027588 C68.4723372,197.254923 68.4466708,197.489587 68.4466708,197.731588 L68.4466708,200.470588 L67.6986708,200.470588 L67.6986708,197.467588 C67.6986708,197.218254 67.6803377,196.990923 67.6436708,196.785588 C67.607004,196.580254 67.542838,196.406089 67.4511708,196.263088 C67.3595037,196.120088 67.233005,196.010089 67.0716708,195.933088 C66.9103367,195.856088 66.7050054,195.817588 66.4556708,195.817588 C66.2796699,195.817588 66.1018384,195.857921 65.9221708,195.938588 C65.7425033,196.019255 65.5811715,196.142087 65.4381708,196.307088 C65.2951701,196.472089 65.1796713,196.681087 65.0916708,196.934088 C65.0036704,197.18709 64.9596708,197.48592 64.9596708,197.830588 L64.9596708,200.470588 L64.2116708,200.470588 L64.2116708,196.455588 C64.2116708,196.316254 64.2080042,196.136589 64.2006708,195.916588 C64.1933375,195.696587 64.1823376,195.498589 64.1676708,195.322588 L64.8826708,195.322588 C64.8973376,195.461922 64.9083375,195.615921 64.9156708,195.784588 C64.9230042,195.953256 64.9266708,196.092588 64.9266708,196.202588 L64.9486708,196.202588 Z M74.6946708,199.601588 L74.6946708,200.470588 L73.9466708,200.470588 L73.9466708,192.154588 L74.6946708,192.154588 L74.6946708,196.213588 L74.7166708,196.213588 C74.9366719,195.876253 75.2226691,195.621422 75.5746708,195.449088 C75.9266726,195.276754 76.289669,195.190588 76.6636708,195.190588 C77.0670062,195.190588 77.4318359,195.260254 77.7581708,195.399588 C78.0845058,195.538922 78.3631697,195.729587 78.5941708,195.971588 C78.825172,196.213589 79.0048369,196.499587 79.1331708,196.829588 C79.2615048,197.15959 79.3256708,197.515253 79.3256708,197.896588 C79.3256708,198.277923 79.2615048,198.633587 79.1331708,198.963588 C79.0048369,199.29359 78.825172,199.579587 78.5941708,199.821588 C78.3631697,200.063589 78.0845058,200.254254 77.7581708,200.393588 C77.4318359,200.532922 77.0670062,200.602588 76.6636708,200.602588 C76.289669,200.602588 75.9266726,200.518256 75.5746708,200.349588 C75.2226691,200.180921 74.9366719,199.93159 74.7166708,199.601588 L74.6946708,199.601588 Z M78.5336708,197.896588 C78.5336708,197.610587 78.4896713,197.34109 78.4016708,197.088088 C78.3136704,196.835087 78.1871717,196.615089 78.0221708,196.428088 C77.85717,196.241087 77.653672,196.092589 77.4116708,195.982588 C77.1696696,195.872588 76.8946724,195.817588 76.5866708,195.817588 C76.3006694,195.817588 76.036672,195.870754 75.7946708,195.977088 C75.5526696,196.083422 75.3436717,196.230087 75.1676708,196.417088 C74.9916699,196.604089 74.8541713,196.824087 74.7551708,197.077088 C74.6561703,197.33009 74.6066708,197.603253 74.6066708,197.896588 C74.6066708,198.189923 74.6561703,198.463087 74.7551708,198.716088 C74.8541713,198.96909 74.9916699,199.187254 75.1676708,199.370588 C75.3436717,199.553922 75.5526696,199.698754 75.7946708,199.805088 C76.036672,199.911422 76.3006694,199.964588 76.5866708,199.964588 C76.8946724,199.964588 77.1696696,199.911422 77.4116708,199.805088 C77.653672,199.698754 77.85717,199.552089 78.0221708,199.365088 C78.1871717,199.178087 78.3136704,198.95809 78.4016708,198.705088 C78.4896713,198.452087 78.5336708,198.18259 78.5336708,197.896588 Z M84.8586708,197.500588 C84.8366707,197.016586 84.6808389,196.61509 84.3911708,196.296088 C84.1015027,195.977087 83.6890068,195.817588 83.1536708,195.817588 C82.9043362,195.817588 82.6733386,195.863421 82.4606708,195.955088 C82.2480031,196.046755 82.061005,196.171421 81.8996708,196.329088 C81.7383367,196.486756 81.6100046,196.666421 81.5146708,196.868088 C81.419337,197.069756 81.3643376,197.280587 81.3496708,197.500588 L84.8586708,197.500588 Z M85.6176708,197.742588 L85.6176708,197.907588 C85.6176708,197.966255 85.6140042,198.028588 85.6066708,198.094588 L81.3386708,198.094588 C81.3460042,198.351256 81.397337,198.593254 81.4926708,198.820588 C81.5880046,199.047923 81.7200033,199.245921 81.8886708,199.414588 C82.0573383,199.583256 82.2553364,199.717088 82.4826708,199.816088 C82.7100053,199.915089 82.9556695,199.964588 83.2196708,199.964588 C83.6083394,199.964588 83.9438361,199.874756 84.2261708,199.695088 C84.5085056,199.515421 84.7230034,199.308256 84.8696708,199.073588 L85.4306708,199.513588 C85.1226693,199.902257 84.783506,200.180921 84.4131708,200.349588 C84.0428356,200.518256 83.6450063,200.602588 83.2196708,200.602588 C82.8383356,200.602588 82.4845058,200.534756 82.1581708,200.399088 C81.8318359,200.263421 81.5513387,200.074589 81.3166708,199.832588 C81.082003,199.590587 80.8968382,199.30459 80.7611708,198.974588 C80.6255035,198.644587 80.5576708,198.285257 80.5576708,197.896588 C80.5576708,197.50792 80.6236702,197.14859 80.7556708,196.818588 C80.8876715,196.488587 81.071003,196.202589 81.3056708,195.960588 C81.5403387,195.718587 81.8153359,195.529756 82.1306708,195.394088 C82.4460057,195.258421 82.7870023,195.190588 83.1536708,195.190588 C83.5570062,195.190588 83.9126693,195.258421 84.2206708,195.394088 C84.5286724,195.529756 84.7853365,195.713087 84.9906708,195.944088 C85.1960052,196.175089 85.351837,196.444587 85.4581708,196.752588 C85.5645047,197.06059 85.6176708,197.390586 85.6176708,197.742588 Z M87.2236708,196.455588 C87.2236708,196.316254 87.2200042,196.136589 87.2126708,195.916588 C87.2053375,195.696587 87.1943376,195.498589 87.1796708,195.322588 L87.8946708,195.322588 C87.9093376,195.461922 87.9203375,195.615921 87.9276708,195.784588 C87.9350042,195.953256 87.9386708,196.092588 87.9386708,196.202588 L87.9606708,196.202588 C88.1073382,195.90192 88.327336,195.658089 88.6206708,195.471088 C88.9140056,195.284087 89.2440023,195.190588 89.6106708,195.190588 C89.7060046,195.190588 89.7921704,195.194255 89.8691708,195.201588 C89.9461712,195.208922 90.0250038,195.223588 90.1056708,195.245588 L90.0066708,195.949588 C89.9626706,195.934921 89.889338,195.920255 89.7866708,195.905588 C89.6840036,195.890921 89.581338,195.883588 89.4786708,195.883588 C89.2806698,195.883588 89.0900051,195.920255 88.9066708,195.993588 C88.7233366,196.066922 88.5638382,196.182421 88.4281708,196.340088 C88.2925035,196.497756 88.1825046,196.69942 88.0981708,196.945088 C88.0138371,197.190756 87.9716708,197.48592 87.9716708,197.830588 L87.9716708,200.470588 L87.2236708,200.470588 L87.2236708,196.455588 Z" id="Mrs-E-Hudson-Member" fill="#FFFFFF" fill-rule="nonzero"></path>
        </g>
    </g>
</svg>